<svg
  xmlns="http://www.w3.org/2000/svg"
  viewBox="0 0 24 24"
  width="24px"
  height="24px"
>
  <path
    fill="#000000"
    d="M16.365 1.41c-.947.075-2.093.641-2.772 1.398-.592.662-1.091 1.707-.896 2.707.997.044 2.032-.563 2.682-1.342.6-.708 1.038-1.723.986-2.763zm-1.41 4.545c-1.54-.104-2.845.885-3.584.885-.754 0-1.907-.85-3.15-.825-1.616.025-3.116.954-3.947 2.413-1.682 2.933-.428 7.28 1.198 9.668.818 1.188 1.798 2.512 3.073 2.462 1.243-.05 1.713-.799 3.212-.799 1.488 0 1.906.799 3.198.774 1.335-.025 2.173-1.19 2.983-2.386.936-1.386 1.319-2.737 1.344-2.805-.03-.012-2.658-1.04-2.687-4.124-.024-2.56 2.076-3.774 2.173-3.861-1.197-1.748-3.065-1.941-3.694-1.99-.84-.065-1.601.497-2.135.497-.525 0-1.386-.477-2.287-.453z"
  />
</svg>
