<svg
  xmlns="http://www.w3.org/2000/svg"
  viewBox="0 0 24 24"
  width="24"
  height="24"
>
  <path
    fill="#000000"
    d="M12 0C5.37 0 0 5.37 0 12c0 5.3 3.438 9.8 8.207 11.385.6.11.793-.26.793-.577v-2.165c-3.338.725-4.042-1.61-4.042-1.61-.547-1.387-1.334-1.756-1.334-1.756-1.091-.745.083-.73.083-.73 1.205.084 1.838 1.236 1.838 1.236 1.07 1.834 2.809 1.303 3.495.995.11-.775.42-1.304.763-1.605-2.665-.3-5.466-1.332-5.466-5.93 0-1.31.468-2.383 1.236-3.22-.124-.303-.536-1.523.118-3.176 0 0 1.008-.322 3.3 1.23a11.51 11.51 0 013.003-.404c1.018.004 2.043.137 3.003.404 2.29-1.552 3.297-1.23 3.297-1.23.656 1.653.244 2.873.12 3.176.77.837 1.235 1.91 1.235 3.22 0 4.61-2.805 5.625-5.475 5.92.43.37.81 1.1.81 2.217v3.285c0 .32.19.694.8.575C20.565 21.797 24 17.297 24 12c0-6.63-5.37-12-12-12z"
  />
</svg>
