<svg
  xmlns="http://www.w3.org/2000/svg"
  viewBox="0 0 48 48"
  width="24px"
  height="24px"
>
  <path
    fill="#4285F4"
    d="M46.2,24.3c0-1.6-0.1-3.1-0.4-4.6H24v9h12.6c-0.5,2.5-2,4.6-4.1,6L39,40.6c4.4-4,7-10,7-16.3H46.2z"
  />
  <path
    fill="#34A853"
    d="M24,48c6.4,0,11.7-2.1,15.6-5.7l-7.5-7.2c-2.1,1.4-4.8,2.2-8.1,2.2c-6.2,0-11.5-4.2-13.4-9.9l-8,6.2C8.4,41.7,15.7,48,24,48z"
  />
  <path
    fill="#FBBC05"
    d="M10.6,29.4C9.8,27.6,9.3,25.6,9.3,23.5c0-2.1,0.5-4.1,1.3-5.9l-8-6.2c-2.4,4.2-3.7,9-3.7,14.2c0,5.2,1.3,10,3.7,14.2L10.6,29.4z"
  />
  <path
    fill="#EA4335"
    d="M24,9.5c3.6,0,6.9,1.2,9.4,3.6l6.9-6.9C36.4,2.1,30.7,0,24,0C15.7,0,8.4,6.3,5.4,15.6l8,6.2C13.5,13.7,18.3,9.5,24,9.5z"
  />
</svg>
